<?xml version="1.0" encoding="utf-8"?>
<!-- Generator: Adobe Illustrator 22.0.1, SVG Export Plug-In . SVG Version: 6.00 Build 0)  -->
<svg version="1.1" xmlns="http://www.w3.org/2000/svg" xmlns:xlink="http://www.w3.org/1999/xlink" x="0px" y="0px"
	 viewBox="0 0 127.3 132.2" style="enable-background:new 0 0 127.3 132.2;" xml:space="preserve">
<style type="text/css">
	.st0{fill:#00C2A2;}
	.st1{fill:#007DA2;}
	.st2{fill:#FFAE00;}
</style>
<g id="Layer_6">
	<path class="st0" d="M32.9,99.2V23.4c-6.2-2.1-12.9-3.4-20-3.2v96c0,0,40.6-9.2,63.3-1.6c-15.2-11.8-39.6-14.9-39.9-15L32.9,99.2z"
		/>
</g>
<g id="Layer_5">
	<path class="st0" d="M33,119.3c-17.8,5.6-33,12.9-33,12.9v-96c2.2,0,4.5,0,6.6,0.2v87.7l7.7-1.7C14.4,122.3,22.4,120.6,33,119.3z"
		/>
</g>
<g id="Layer_4">
	<path class="st0" d="M86.9,95.4c-18.3,0-33.2-14.9-33.2-33.2s14.9-33.2,33.2-33.2c1,0,2,0.1,2.9,0.1v-5.1c0,0-23.5-24.7-53-24.1v96
		c0,0,42.4,5.2,53,29.3V95.3C88.9,95.4,87.9,95.4,86.9,95.4z"/>
</g>
<g id="Layer_3">
	<path class="st1" d="M126,95l-16.1-16.1c3.4-4.7,5.4-10.5,5.4-16.7c0-14.7-11.2-26.8-25.5-28.3c-1-0.1-1.9-0.1-2.9-0.1
		c-15.7,0-28.5,12.8-28.5,28.5c0,15.7,12.8,28.5,28.5,28.5c1,0,2,0,2.9-0.2c5.1-0.5,9.9-2.4,13.8-5.3l16.1,16.1
		c1.7,1.7,4.6,1.7,6.3,0C127.7,99.6,127.7,96.8,126,95z M103.5,72.5c-1.6,2.5-3.7,4.7-6.3,6.3c-2.2,1.4-4.7,2.3-7.4,2.7
		c-0.9,0.1-1.9,0.2-2.9,0.2c-10.8,0-19.5-8.8-19.5-19.5c0-10.8,8.8-19.5,19.5-19.5c1,0,2,0.1,2.9,0.2c9.4,1.4,16.6,9.6,16.6,19.3
		C106.4,66,105.3,69.5,103.5,72.5z"/>
</g>
<g id="Layer_2">
	<polygon class="st2" points="96.2,49.4 79.2,63.7 84.9,63.7 75.9,74.5 95.5,61.1 88.5,61.1 	"/>
</g>
</svg>
